<?xml version="1.0" encoding="UTF-8" standalone="no"?>
<!-- Created with Inkscape (http://www.inkscape.org/) -->

<svg
   xmlns:dc="http://purl.org/dc/elements/1.1/"
   xmlns:cc="http://creativecommons.org/ns#"
   xmlns:rdf="http://www.w3.org/1999/02/22-rdf-syntax-ns#"
   xmlns:svg="http://www.w3.org/2000/svg"
   xmlns="http://www.w3.org/2000/svg"
   xmlns:sodipodi="http://sodipodi.sourceforge.net/DTD/sodipodi-0.dtd"
   xmlns:inkscape="http://www.inkscape.org/namespaces/inkscape"
   width="85mm"
   height="63mm"
   viewBox="0 0 85 63"
   version="1.1"
   id="svg8"
   inkscape:version="0.92.3 (2405546, 2018-03-11)"
   sodipodi:docname="fivedollars.svg">
  <defs
     id="defs2" />
  <sodipodi:namedview
     id="base"
     pagecolor="#ffffff"
     bordercolor="#666666"
     borderopacity="1.0"
     inkscape:pageopacity="0.0"
     inkscape:pageshadow="2"
     inkscape:zoom="1.4"
     inkscape:cx="167.93428"
     inkscape:cy="56.617881"
     inkscape:document-units="mm"
     inkscape:current-layer="g2695"
     showgrid="false"
     inkscape:window-width="1920"
     inkscape:window-height="1001"
     inkscape:window-x="2391"
     inkscape:window-y="-9"
     inkscape:window-maximized="1" />
  <metadata
     id="metadata5">
    <rdf:RDF>
      <cc:Work
         rdf:about="">
        <dc:format>image/svg+xml</dc:format>
        <dc:type
           rdf:resource="http://purl.org/dc/dcmitype/StillImage" />
        <dc:title></dc:title>
      </cc:Work>
    </rdf:RDF>
  </metadata>
  <g
     inkscape:label="Layer 1"
     inkscape:groupmode="layer"
     id="layer1"
     transform="translate(0,-234)">
    <g
       id="g2485"
       transform="translate(2.078869,-7.1815476)"
       style="fill:#fcfcfc;fill-opacity:1" />
    <g
       id="g2560"
       transform="translate(-57.74117,131.03215)">
      <g
         id="g2516">
        <g
           id="g2491"
           transform="translate(2.078869,-6.852128)"
           style="fill:#e05206;fill-opacity:1">
          <g
             id="g2695">
            <path
               transform="translate(34.804325,12.732058)"
               inkscape:connector-curvature="0"
               id="path2518"
               d="M 104.94183,140.05362 H 94.251055"
               style="fill:none;stroke:#e2e2e2;stroke-width:0.5;stroke-linecap:butt;stroke-linejoin:miter;stroke-miterlimit:4;stroke-dasharray:none;stroke-opacity:1"
               sodipodi:nodetypes="cc" />
            <path
               transform="translate(34.804325,12.732058)"
               sodipodi:nodetypes="cc"
               style="fill:none;stroke:#e2e2e2;stroke-width:0.25;stroke-linecap:butt;stroke-linejoin:miter;stroke-miterlimit:4;stroke-dasharray:none;stroke-opacity:1"
               d="M 101.25942,147.83581 H 96.507581"
               id="path2520"
               inkscape:connector-curvature="0" />
            <path
               transform="translate(34.804325,12.732058)"
               inkscape:connector-curvature="0"
               id="path2522"
               d="M 104.74754,154.90235 H 94.516693"
               style="fill:none;stroke:#e2e2e2;stroke-width:0.25;stroke-linecap:butt;stroke-linejoin:miter;stroke-miterlimit:4;stroke-dasharray:none;stroke-opacity:1"
               sodipodi:nodetypes="cc" />
            <path
               transform="translate(34.804325,12.732058)"
               style="fill:none;stroke:#e2e2e2;stroke-width:0.5;stroke-linecap:butt;stroke-linejoin:miter;stroke-miterlimit:4;stroke-dasharray:none;stroke-opacity:1"
               d="M 35.839344,140.05362 H 21.774121"
               id="path2530"
               inkscape:connector-curvature="0"
               sodipodi:nodetypes="cc" />
            <path
               transform="translate(34.804325,12.732058)"
               inkscape:connector-curvature="0"
               id="path2532"
               d="M 35.57255,154.99278 H 30.8207"
               style="fill:none;stroke:#e2e2e2;stroke-width:0.25;stroke-linecap:butt;stroke-linejoin:miter;stroke-miterlimit:4;stroke-dasharray:none;stroke-opacity:1"
               sodipodi:nodetypes="cc" />
            <path
               transform="translate(34.804325,12.732058)"
               sodipodi:nodetypes="cc"
               style="fill:none;stroke:#e2e2e2;stroke-width:0.25;stroke-linecap:butt;stroke-linejoin:miter;stroke-miterlimit:4;stroke-dasharray:none;stroke-opacity:1"
               d="M 32.775518,147.5506 H 26.040936"
               id="path2534"
               inkscape:connector-curvature="0" />
            <rect
               y="117.91489"
               x="76.008278"
               height="48.509418"
               width="48.509418"
               id="rect2493"
               style="opacity:1;fill:#e05206;fill-opacity:1;stroke:#e05206;stroke-width:1.5;stroke-linecap:round;stroke-linejoin:round;stroke-miterlimit:4;stroke-dasharray:none;stroke-opacity:1"
               transform="translate(1.6666668e-7,-0.32941858)" />
            <rect
               style="opacity:1;fill:#fcfcfc;fill-opacity:1;stroke:#e05206;stroke-width:1.5;stroke-linecap:round;stroke-linejoin:round;stroke-miterlimit:4;stroke-dasharray:none;stroke-opacity:1"
               id="rect2476"
               width="48.509418"
               height="48.509418"
               x="74.033661"
               y="115.86954"
               transform="translate(1.6666668e-7,-0.32941858)" />
            <path
               style="fill:#fcfcfc;fill-opacity:1;stroke:#e05206;stroke-width:0.5;stroke-linecap:round;stroke-linejoin:round;stroke-miterlimit:4;stroke-dasharray:none;stroke-opacity:1"
               d="m 77.066611,126.91071 v -7.9375 h 3.732514"
               id="path2478"
               inkscape:connector-curvature="0"
               transform="translate(1.6666668e-7,-0.32941858)" />
            <path
               inkscape:connector-curvature="0"
               id="path2480"
               d="m 119.48639,153.71825 v 7.9375 h -3.7325"
               style="fill:#fcfcfc;fill-opacity:1;stroke:#e05206;stroke-width:0.5;stroke-linecap:round;stroke-linejoin:round;stroke-miterlimit:4;stroke-dasharray:none;stroke-opacity:1"
               transform="translate(1.6666668e-7,-0.32941858)" />
            <path
               inkscape:connector-curvature="0"
               id="path2495"
               d="m 73.47906,164.87566 2.083869,2.15068 0.104402,-2.17574 z"
               style="fill:#e05206;fill-opacity:1;stroke:none;stroke-width:0.26458332px;stroke-linecap:butt;stroke-linejoin:miter;stroke-opacity:1"
               transform="translate(1.6666668e-7,-0.32941858)" />
            <path
               inkscape:connector-curvature="0"
               id="path2497"
               d="m 123.1202,115.39321 1.98364,2.05463 -2.12145,-0.0459 z"
               style="fill:#e05206;fill-opacity:1;stroke:none;stroke-width:0.26458332px;stroke-linecap:butt;stroke-linejoin:miter;stroke-opacity:1"
               transform="translate(1.6666668e-7,-0.32941858)" />
            <g
               aria-label="5"
               style="font-style:normal;font-weight:normal;font-size:36.51716995px;line-height:1.25;font-family:sans-serif;letter-spacing:0px;word-spacing:0px;fill:#e05206;fill-opacity:1;stroke:none;stroke-width:3.0430975"
               id="text2470">
              <path
                 d="m 94.184982,140.27617 -1.212484,-0.83804 V 126.7962 h 12.998542 v 3.03121 h -9.610719 v 6.34771 q 1.319468,-0.98068 3.352162,-0.98068 3.637457,0 5.545337,2.17534 1.92571,2.17533 1.92571,6.18723 0,9.82469 -8.754854,9.82469 -3.655283,0 -6.06242,-2.0327 l 1.37296,-2.97771 q 2.424968,1.9792 4.67163,1.9792 5.028244,0 5.028244,-6.27639 0,-5.84845 -4.956922,-5.84845 -2.389307,0 -4.297186,2.05052 z"
                 style="font-style:normal;font-variant:normal;font-weight:normal;font-stretch:normal;font-family:'Trebuchet MS';-inkscape-font-specification:'Trebuchet MS';fill:#e05206;fill-opacity:1;stroke-width:3.0430975"
                 id="path903" />
            </g>
            <g
               aria-label="$"
               style="font-style:normal;font-weight:normal;font-size:16.27973557px;line-height:1.25;font-family:sans-serif;letter-spacing:0px;word-spacing:0px;fill:#e05206;fill-opacity:1;stroke:none;stroke-width:1.35664451"
               id="text2474">
              <path
                 d="m 86.422147,139.45909 q -0.548488,-0.0318 -1.383142,-0.27822 -0.834654,-0.24642 -1.144669,-0.4531 l 0.572335,-1.46263 q 0.413352,0.30206 1.089025,0.53259 0.683622,0.23052 1.216211,0.23052 0.930043,0 1.494428,-0.50874 0.564386,-0.50874 0.564386,-1.2957 0,-0.49285 -0.166931,-0.8744 -0.158982,-0.38156 -0.445149,-0.61208 -0.278218,-0.23847 -1.279803,-0.70747 l -0.937993,-0.4372 q -1.192364,-0.55644 -1.669309,-1.31955 -0.468996,-0.76311 -0.468996,-1.83624 0,-1.10492 0.691571,-1.92368 0.699519,-0.81875 1.868036,-1.03338 v -1.27185 h 1.104923 v 1.21621 q 1.709054,0.0715 2.313185,0.62003 l -0.468996,1.38314 q -0.317964,-0.23053 -0.969789,-0.44515 -0.651825,-0.21463 -1.208262,-0.21463 -0.810807,0 -1.279803,0.46105 -0.461047,0.46105 -0.461047,1.18441 0,0.44515 0.166931,0.81081 0.166931,0.36566 0.476945,0.62003 0.310014,0.25437 1.208262,0.68362 l 0.731316,0.34181 q 1.240058,0.58029 1.812392,1.42289 0.572335,0.83465 0.572335,2.14625 0,1.08108 -0.771062,1.89984 -0.763113,0.8108 -2.122407,1.04133 v 1.83624 h -1.104923 z"
                 style="font-style:normal;font-variant:normal;font-weight:normal;font-stretch:normal;font-family:'Trebuchet MS';-inkscape-font-specification:'Trebuchet MS';fill:#e05206;fill-opacity:1;stroke-width:1.35664451"
                 id="path900" />
            </g>
            <g
               aria-label="*"
               style="font-style:normal;font-weight:normal;font-size:16.27973557px;line-height:1.25;font-family:sans-serif;letter-spacing:0px;word-spacing:0px;fill:#e05206;fill-opacity:1;stroke:none;stroke-width:1.35664451"
               id="text2663">
              <path
                 d="m 113.41844,129.73477 -1.37519,0.0238 1.25596,0.83466 0.3736,0.49284 -0.96979,0.82671 -0.42925,-0.55644 -0.65182,-1.26391 -0.72337,1.28776 -0.34181,0.50874 -1.04133,-0.80286 0.39745,-0.54849 1.25596,-0.65977 -1.39904,-0.21463 -0.71542,-0.25437 0.57234,-1.19236 0.76311,0.29412 0.99364,0.75516 -0.5008,-1.62956 v -0.62798 h 1.39904 v 0.60413 l -0.47694,1.67726 1.25595,-0.85056 0.58824,-0.21462 0.45309,1.2798 z"
                 style="font-style:normal;font-variant:normal;font-weight:normal;font-stretch:normal;font-family:'Trebuchet MS';-inkscape-font-specification:'Trebuchet MS';fill:#e05206;fill-opacity:1;stroke-width:1.35664451"
                 id="path897" />
            </g>
          </g>
        </g>
      </g>
    </g>
  </g>
</svg>
