<?xml version="1.0" encoding="UTF-8" standalone="no"?>
<!-- Created with Inkscape (http://www.inkscape.org/) -->

<svg
   xmlns:dc="http://purl.org/dc/elements/1.1/"
   xmlns:cc="http://creativecommons.org/ns#"
   xmlns:rdf="http://www.w3.org/1999/02/22-rdf-syntax-ns#"
   xmlns:svg="http://www.w3.org/2000/svg"
   xmlns="http://www.w3.org/2000/svg"
   xmlns:sodipodi="http://sodipodi.sourceforge.net/DTD/sodipodi-0.dtd"
   xmlns:inkscape="http://www.inkscape.org/namespaces/inkscape"
   width="75mm"
   height="63mm"
   viewBox="0 0 75 63"
   version="1.1"
   id="svg8"
   inkscape:version="0.92.3 (2405546, 2018-03-11)"
   sodipodi:docname="shield.svg">
  <defs
     id="defs2" />
  <sodipodi:namedview
     id="base"
     pagecolor="#ffffff"
     bordercolor="#666666"
     borderopacity="1.0"
     inkscape:pageopacity="0.0"
     inkscape:pageshadow="2"
     inkscape:zoom="0.7"
     inkscape:cx="75.013648"
     inkscape:cy="114.04533"
     inkscape:document-units="mm"
     inkscape:current-layer="layer1"
     showgrid="false"
     inkscape:window-width="1920"
     inkscape:window-height="1001"
     inkscape:window-x="2391"
     inkscape:window-y="-9"
     inkscape:window-maximized="1" />
  <metadata
     id="metadata5">
    <rdf:RDF>
      <cc:Work
         rdf:about="">
        <dc:format>image/svg+xml</dc:format>
        <dc:type
           rdf:resource="http://purl.org/dc/dcmitype/StillImage" />
        <dc:title></dc:title>
      </cc:Work>
    </rdf:RDF>
  </metadata>
  <g
     inkscape:label="Layer 1"
     inkscape:groupmode="layer"
     id="layer1"
     transform="translate(0,-234)">
    <g
       id="g2455"
       transform="translate(-27.950041,66.518489)">
      <g
         transform="translate(-25.855126,88.164774)"
         id="g2371"
         style="stroke:#e05206;stroke-width:1.5;stroke-linecap:round;stroke-linejoin:round;stroke-miterlimit:4;stroke-dasharray:none;stroke-opacity:1">
        <path
           sodipodi:nodetypes="ccccc"
           inkscape:connector-curvature="0"
           id="path2369"
           d="m 88.13566,140.05143 c -23.405067,-10.22194 -25.7627,-32.8427 -25.48022,-49.00512 8.355194,-0.855816 18.648321,-4.265426 25.48022,-7.3476 6.319745,2.73961 17.60532,6.065421 25.48022,7.3476 0.24393,15.55481 -3.12918,39.00292 -25.48022,49.00512 z"
           style="fill:#e05206;fill-opacity:1;stroke:#e05206;stroke-width:1.5;stroke-linecap:round;stroke-linejoin:round;stroke-miterlimit:4;stroke-dasharray:none;stroke-opacity:1" />
      </g>
      <path
         style="fill:#e05206;fill-opacity:1;stroke:none;stroke-width:0.26458332px;stroke-linecap:butt;stroke-linejoin:miter;stroke-opacity:1"
         d="m 38.398143,176.55255 -2.12963,2.12811 2.18809,0.16039 z"
         id="path2377"
         inkscape:connector-curvature="0"
         sodipodi:nodetypes="cccc" />
      <g
         transform="translate(-75.370007,17.10525)"
         id="g2414">
        <g
           transform="translate(51.631548,68.942857)"
           id="g2375"
           style="fill:#f9f9f9;fill-opacity:1;stroke:#e05206;stroke-width:1.5;stroke-linecap:round;stroke-linejoin:round;stroke-miterlimit:4;stroke-dasharray:none;stroke-opacity:1">
          <path
             sodipodi:nodetypes="ccccc"
             inkscape:connector-curvature="0"
             id="path2373"
             d="m 88.13566,140.05143 c -23.405067,-10.22194 -25.7627,-32.8427 -25.48022,-49.00512 8.355194,-0.855816 18.648321,-4.265426 25.48022,-7.3476 6.319745,2.73961 17.60532,6.065421 25.48022,7.3476 0.24393,15.55481 -3.12918,39.00292 -25.48022,49.00512 z"
             style="fill:#fcfcfc;fill-opacity:1;stroke:#e05206;stroke-width:1.5;stroke-linecap:round;stroke-linejoin:round;stroke-miterlimit:4;stroke-dasharray:none;stroke-opacity:1" />
        </g>
        <path
           sodipodi:nodetypes="ccc"
           inkscape:connector-curvature="0"
           id="path2379"
           d="m 117.92632,167.71048 c -0.0935,-1.3961 -0.15121,-3.00655 -0.13949,-5.03377 2.96765,-0.46362 4.95159,-1.02795 8.64621,-1.98438"
           style="fill:none;stroke:#e05206;stroke-width:0.5;stroke-linecap:round;stroke-linejoin:round;stroke-miterlimit:4;stroke-dasharray:none;stroke-opacity:1" />
        <path
           style="fill:none;stroke:#e05206;stroke-width:0.5;stroke-linecap:round;stroke-linejoin:round;stroke-miterlimit:4;stroke-dasharray:none;stroke-opacity:1"
           d="m 161.84234,167.71048 c 0.0935,-1.3961 0.15121,-3.00655 0.13949,-5.03377 -2.96765,-0.46362 -4.95159,-1.02795 -8.64621,-1.98438"
           id="path2418"
           inkscape:connector-curvature="0"
           sodipodi:nodetypes="ccc" />
      </g>
      <g
         transform="translate(1.1137851,-0.00165308)"
         id="g2401">
        <g
           style="fill:#e05206;fill-opacity:1"
           transform="matrix(0.23421302,0,0,0.23421302,27.983501,257.73045)"
           id="g2391">
	<g
   transform="matrix(2.5785756,0,0,2.5785756,-337.14106,-307.55355)"
   style="fill:#e05206;fill-opacity:1"
   id="g2389">
		<g
   style="fill:#e05206;fill-opacity:1"
   id="g2387">
			<path
   style="fill:#e05206;fill-opacity:1"
   inkscape:connector-curvature="0"
   d="m 189.646,25.984 c 0,2.514 -2.035,4.548 -4.548,4.548 -2.437,0 -4.418,-1.916 -4.535,-4.323 h -0.041 v -7.645 h 0.002 V 8.357 c 0,0 0.365,-2.875 -3.091,-2.86 -2.804,0.017 -15.286,0 -15.286,0 0,0 12.207,1.798 12.207,7.296 0,1.637 0.021,10.554 0.021,13.158 0,0.271 0.018,0.521 0.03,0.776 -0.001,0.082 -0.012,0.162 -0.012,0.245 0,4.548 3.688,8.235 8.234,8.235 9.256,0 8.236,-8.235 8.236,-8.235 0,0 -1.217,-3.115 -1.217,-0.988 z"
   id="path2383" />

			<path
   style="fill:#e05206;fill-opacity:1"
   inkscape:connector-curvature="0"
   d="m 201.216,25.598 v -9.12 c 0,0 -0.663,-2.097 -2.167,-2.114 -0.651,-0.007 -1.462,-0.014 -2.448,-0.021 V -0.066 h -16.018 c 0,0 1.422,3.477 6.631,3.477 2.813,0 2.332,6.976 2.36,6.973 v 3.941 c -0.739,0.001 -1.632,0.001 -2.559,-10e-4 v -2.687 c 0,0 -0.51,-1.017 -2.468,-1.017 -1.961,0 -2.606,1.017 -2.606,1.017 v 10.538 c 0,0 2.356,0 5.656,0 10.305,0 5.719,13.958 0.72,13.958 h 21.608 z"
   id="path2385" />

		</g>

	</g>

	
	
	
	
	
	
</g>
        <path
           sodipodi:nodetypes="ccc"
           inkscape:connector-curvature="0"
           id="path2420"
           d="m 61.727588,221.87287 c 0.476268,0.22418 1.148669,0.61859 1.61503,0.77343 1.548971,-0.69566 2.53033,-1.13177 3.741533,-2.09083"
           style="fill:none;stroke:#e05206;stroke-width:0.5;stroke-linecap:round;stroke-linejoin:miter;stroke-miterlimit:4;stroke-dasharray:none;stroke-opacity:1" />
      </g>
      <path
         inkscape:connector-curvature="0"
         id="path2422"
         d="M 40.491333,215.08189 H 29.266012"
         style="fill:none;stroke:#e2e2e2;stroke-width:0.5;stroke-linecap:butt;stroke-linejoin:miter;stroke-miterlimit:4;stroke-dasharray:none;stroke-opacity:1" />
      <path
         style="fill:none;stroke:#e2e2e2;stroke-width:0.5;stroke-linecap:butt;stroke-linejoin:miter;stroke-miterlimit:4;stroke-dasharray:none;stroke-opacity:1"
         d="M 101.63407,215.08189 H 84.261548"
         id="path2424"
         inkscape:connector-curvature="0" />
      <path
         sodipodi:nodetypes="cc"
         style="fill:none;stroke:#e2e2e2;stroke-width:0.25;stroke-linecap:butt;stroke-linejoin:miter;stroke-miterlimit:4;stroke-dasharray:none;stroke-opacity:1"
         d="m 42.333333,222.26344 h -5.93302"
         id="path2426"
         inkscape:connector-curvature="0" />
      <path
         inkscape:connector-curvature="0"
         id="path2428"
         d="M 86.178572,221.27657 H 81.426726"
         style="fill:none;stroke:#e2e2e2;stroke-width:0.25;stroke-linecap:butt;stroke-linejoin:miter;stroke-miterlimit:4;stroke-dasharray:none;stroke-opacity:1"
         sodipodi:nodetypes="cc" />
      <path
         sodipodi:nodetypes="cc"
         style="fill:none;stroke:#e2e2e2;stroke-width:0.25;stroke-linecap:butt;stroke-linejoin:miter;stroke-miterlimit:4;stroke-dasharray:none;stroke-opacity:1"
         d="M 91.791232,226.7556 H 81.560361"
         id="path2430"
         inkscape:connector-curvature="0" />
      <path
         inkscape:connector-curvature="0"
         id="path2432"
         d="M 49.028108,226.7556 H 34.520925"
         style="fill:none;stroke:#e2e2e2;stroke-width:0.25;stroke-linecap:butt;stroke-linejoin:miter;stroke-miterlimit:4;stroke-dasharray:none;stroke-opacity:1"
         sodipodi:nodetypes="cc" />
    </g>
    <g
       id="g2485"
       transform="translate(2.078869,-7.1815476)"
       style="fill:#fcfcfc;fill-opacity:1" />
  </g>
</svg>
