<?xml version="1.0" encoding="utf-8"?>
<!-- Generator: Adobe Illustrator 15.1.0, SVG Export Plug-In . SVG Version: 6.00 Build 0)  -->
<!DOCTYPE svg PUBLIC "-//W3C//DTD SVG 1.1//EN" "http://www.w3.org/Graphics/SVG/1.1/DTD/svg11.dtd">
<svg version="1.1" id="Layer_1" xmlns="http://www.w3.org/2000/svg" xmlns:xlink="http://www.w3.org/1999/xlink" x="0px" y="0px"
	 width="210px" height="50px" viewBox="0 0 210 50" enable-background="new 0 0 210 50" xml:space="preserve">
<g>
	<g>
		<g>
			<path fill="#FFFFFF" d="M189.646,25.984c0,2.514-2.035,4.548-4.548,4.548c-2.437,0-4.418-1.916-4.535-4.323h-0.041v-7.645h0.002
				V8.357c0,0,0.365-2.875-3.091-2.86c-2.804,0.017-15.286,0-15.286,0s12.207,1.798,12.207,7.296c0,1.637,0.021,10.554,0.021,13.158
				c0,0.271,0.018,0.521,0.03,0.776c-0.001,0.082-0.012,0.162-0.012,0.245c0,4.548,3.688,8.235,8.234,8.235
				c9.256,0,8.236-8.235,8.236-8.235S189.646,23.857,189.646,25.984z"/>
			<path fill="#FFFFFF" d="M201.216,25.598v-9.12c0,0-0.663-2.097-2.167-2.114c-0.651-0.007-1.462-0.014-2.448-0.021V-0.066h-16.018
				c0,0,1.422,3.477,6.631,3.477c2.813,0,2.332,6.976,2.36,6.973v3.941c-0.739,0.001-1.632,0.001-2.559-0.001v-2.687
				c0,0-0.51-1.017-2.468-1.017c-1.961,0-2.606,1.017-2.606,1.017v10.538c0,0,2.356,0,5.656,0c10.305,0,5.719,13.958,0.72,13.958
				h21.608L201.216,25.598z"/>
		</g>
	</g>
	<path fill="#FFFFFF" d="M0.265,5.867v3.321H1.44c1.728,0.006,2.827,0.202,3.53,0.965c0.676,0.78,0.737,1.841,0.746,3.31v13.842
		c-0.009,1.469-0.07,2.53-0.746,3.311c-0.703,0.762-1.802,0.959-3.53,0.965H0.266l-0.001,3.32h16.892v-3.32
		c-1.729-0.006-2.838-0.203-3.542-0.965c-0.675-0.78-0.736-1.842-0.745-3.311V19.56c0-3.443,0.871-6.114,2.407-7.936
		c1.534-1.825,3.727-2.758,6.212-2.753c1.943-0.007,3.375,0.546,4.249,1.718c0.868,1.166,1.16,2.802,1.163,4.907v11.81
		c-0.008,1.469-0.069,2.53-0.746,3.311c-0.703,0.762-1.794,0.959-3.521,0.965v3.321h16.604v-3.321h-0.906
		c-1.729-0.006-2.827-0.203-3.531-0.965c-0.676-0.78-0.737-1.842-0.746-3.311v-11.81c0.002-3.763-0.668-6.401-2.162-8.071
		c-1.488-1.671-3.88-2.508-7.596-2.511c-3.626,0-7.175,1.989-10.604,6.057l-0.823,0.976V5.867H0.265z"/>
	<path fill="#FFFFFF" d="M45.862,48.552c3.552-0.011,6.039-1.323,8.354-4.102c2.304-2.778,4.354-7.051,6.787-12.818l7.418-17.649
		c1.273-3.1,2.981-4.8,5.375-4.795h0.44V5.867H60.191v3.321h0.774c1.097,0.005,1.886,0.083,2.495,0.406
		c0.628,0.321,0.934,0.993,0.913,1.712c-0.004,0.628-0.229,1.291-0.503,2.019l-5.893,14.271L51.32,12.772
		c-0.293-0.626-0.379-1.157-0.377-1.593c-0.012-0.616,0.256-1.198,0.765-1.529c0.501-0.334,1.156-0.458,1.974-0.461h1.309V5.867
		L37.67,5.868v3.32h0.975c2.663-0.027,4.243,1.486,5.434,4.144l0,0l10.378,22.024l-0.077,0.188c-1.314,3.23-2.597,5.651-4.079,7.304
		c-1.476,1.65-3.205,2.519-5.242,2.511c-1.439,0.01-2.691-0.513-3.693-1.686l-0.668-0.771h1.421
		c2.725-0.051,3.973-1.242,4.011-3.343c-0.015-2.151-1.608-3.701-4.144-3.725c-2.973,0.023-4.99,2.039-5.014,5.185
		C36.978,45.174,40.511,48.536,45.862,48.552z"/>
	<path fill="#FFFFFF" d="M98.934,7.341c-2.19-1.604-5.385-2.617-9.315-2.617c-10.093,0.028-16.956,6.328-16.976,15.661
		c0.038,9.631,5.955,15.558,15.707,15.597c4.37-0.002,7.641-1.104,9.885-3.252c2.161-2.067,3.422-5.154,3.719-9.34H97.71
		c-0.37,2.493-1.164,4.416-2.462,5.741c-1.369,1.399-3.275,2.073-5.629,2.068c-2.863,0.007-5.127-0.903-6.62-2.761
		c-1.492-1.855-2.199-4.568-2.201-8.118c0.001-3.875,0.846-6.944,2.433-9.073c1.581-2.131,3.925-3.273,6.722-3.266
		c2.625-0.006,4.771,0.743,6.837,2.387l0.894,0.707l-1.132,0.122c-2.157,0.249-3.453,1.64-3.46,3.347
		c0.029,2.478,1.645,3.875,4.345,3.915c2.993-0.033,4.847-1.843,4.881-4.93C102.314,11.117,101.124,8.949,98.934,7.341z"/>
	<path fill="#FFFFFF" d="M104.641,5.867v3.322h1.177c1.727,0.005,2.826,0.202,3.529,0.964c0.677,0.781,0.738,1.842,0.746,3.311
		v13.842c-0.008,1.469-0.069,2.53-0.746,3.311c-0.703,0.762-1.802,0.958-3.529,0.965h-1.177v3.32h16.519v-3.32
		c0,0-2.598-0.203-3.301-0.965c-0.677-0.78-0.738-1.842-0.748-3.311v-9.651c0.009-5.179,3.732-8.775,7.887-8.783
		c1.997-0.012,3.361,0.532,4.117,1.722c0.742,1.176,0.885,2.786,0.891,4.903v11.81c-0.007,1.471-0.087,2.541-0.781,3.315
		c-0.719,0.757-1.825,0.953-3.554,0.96v3.321h15.64v-3.321c-1.729-0.007-2.833-0.203-3.537-0.965
		c-0.676-0.78-0.737-1.842-0.745-3.311v-9.651c0.007-5.179,3.73-8.775,7.885-8.783c1.996-0.012,3.36,0.532,4.117,1.722
		c0.742,1.176,0.887,2.786,0.893,4.903v11.81c-0.008,1.471-0.088,2.541-0.783,3.315c-0.72,0.757-1.827,0.953-3.556,0.96v3.321
		h16.475v-3.321h-0.841c-1.727-0.007-2.826-0.203-3.529-0.965c-0.677-0.78-0.736-1.842-0.746-3.311v-11.81
		c0.001-3.764-0.088-6.312-2.067-8.303c-1.349-1.347-3.78-2.281-6.622-2.278c-3.902,0.004-7.033,1.917-10.751,5.944l-0.521,0.566
		l-0.259-0.723c-1.447-3.915-4.056-5.761-8.249-5.788c-4.128,0.01-7.224,1.792-10.533,5.858l-0.829,1.021V5.867H104.641z"/>
	<path fill="#FFFFFF" d="M73.282,49.365h1.489v-9.352h-1.489V49.365z M84.957,46.306l-5.75-6.292h-0.607v9.352h1.521v-6.212
		l5.699,6.212h0.614v-9.352h-1.477V46.306z M93.195,43.888c-0.67-0.468-1.076-0.771-1.167-0.854
		c-0.202-0.193-0.333-0.367-0.394-0.498c-0.067-0.145-0.099-0.286-0.099-0.437c0.003-0.243,0.079-0.414,0.263-0.585
		c0.182-0.164,0.405-0.248,0.726-0.25c0.244,0,0.458,0.057,0.663,0.173c0.187,0.104,0.472,0.371,0.808,0.795l0.168,0.211
		l1.208-0.871l-0.178-0.23c-0.438-0.566-0.86-0.973-1.293-1.207c-0.419-0.228-0.876-0.343-1.357-0.343
		c-0.453,0-0.881,0.102-1.271,0.304c-0.391,0.202-0.707,0.488-0.925,0.847c-0.22,0.358-0.332,0.764-0.332,1.193
		c0,0.547,0.191,1.065,0.553,1.519c0.232,0.301,0.716,0.692,1.496,1.256c0.756,0.539,1.267,1.001,1.522,1.348
		c0.183,0.247,0.259,0.474,0.26,0.698c-0.001,0.207-0.055,0.396-0.172,0.588c-0.114,0.182-0.275,0.329-0.509,0.447
		s-0.479,0.176-0.747,0.176c-0.585,0-1.138-0.379-1.673-1.309l-0.139-0.244l-1.278,0.728l0.142,0.246
		c0.401,0.694,0.848,1.209,1.359,1.528c0.5,0.313,1.068,0.471,1.678,0.471h0.011c0.784,0,1.482-0.265,2.039-0.78
		c0.557-0.51,0.856-1.154,0.854-1.868c0-0.506-0.173-1.005-0.495-1.478C94.581,44.974,94.01,44.461,93.195,43.888z M104.299,45.602
		c0.002,0.68-0.036,1.139-0.083,1.297c-0.078,0.276-0.198,0.502-0.357,0.687c-0.161,0.187-0.359,0.332-0.604,0.439
		c-0.247,0.108-0.499,0.16-0.767,0.163c-0.311-0.003-0.619-0.069-0.935-0.213c-0.316-0.143-0.53-0.311-0.66-0.492
		c-0.136-0.189-0.229-0.432-0.271-0.742c-0.02-0.117-0.037-0.52-0.035-1.139v-5.588h-1.489v5.588
		c0.003,0.906,0.053,1.533,0.184,1.939c0.199,0.619,0.606,1.127,1.185,1.494c0.584,0.37,1.282,0.552,2.07,0.552h0.007
		c0.733,0,1.384-0.197,1.919-0.594c0.52-0.384,0.887-0.855,1.068-1.401c0.175-0.526,0.256-1.188,0.257-1.99v-5.588h-1.489V45.602z
		 M114.623,44.979c0.483-0.202,0.873-0.515,1.142-0.928c0.269-0.41,0.402-0.891,0.401-1.417c0.002-0.629-0.193-1.192-0.585-1.636
		c-0.384-0.438-0.893-0.729-1.491-0.857c-0.413-0.089-1.111-0.125-2.148-0.127h-2.124v9.353h1.489v-4.081h0.104l3.328,4.081h1.87
		l-3.343-4.103C113.804,45.226,114.253,45.134,114.623,44.979z M111.307,43.862v-2.424h1.348c0.618-0.003,1.053,0.055,1.262,0.136
		c0.222,0.087,0.391,0.219,0.529,0.415c0.137,0.198,0.199,0.402,0.201,0.644c-0.002,0.25-0.066,0.461-0.2,0.662
		c-0.134,0.195-0.311,0.334-0.56,0.429c-0.235,0.091-0.67,0.15-1.27,0.149L111.307,43.862z M123.51,40.014l-4.65,9.352h1.661
		l1.441-2.891h3.636l1.455,2.891h1.624l-4.591-9.352H123.51z M122.665,45.062l1.129-2.265l1.122,2.265H122.665z M138.007,46.305
		l-5.75-6.291h-0.606v9.353h1.52v-6.213l5.699,6.213h0.614v-9.353h-1.477V46.305z M151.396,46.839
		c-0.828,0.909-1.817,1.351-3.041,1.354c-1.123-0.001-2.016-0.335-2.736-1c-0.72-0.673-1.066-1.474-1.07-2.477
		c0.001-0.662,0.159-1.244,0.479-1.768s0.764-0.938,1.354-1.254c0.589-0.313,1.222-0.472,1.917-0.473c0.64,0,1.216,0.122,1.74,0.361
		s0.971,0.586,1.348,1.053l0.169,0.209l1.179-0.86l-0.173-0.229c-0.473-0.622-1.083-1.109-1.816-1.45
		c-0.737-0.344-1.561-0.514-2.459-0.514c-1.485-0.001-2.76,0.464-3.76,1.393c-1.002,0.923-1.518,2.099-1.516,3.455
		c-0.002,1.281,0.419,2.406,1.25,3.318c0.987,1.086,2.356,1.629,4.026,1.629c0.003,0,0.008,0,0.012,0
		c0.885,0,1.696-0.158,2.425-0.481c0.727-0.321,1.341-0.78,1.829-1.371l0.192-0.234l-1.179-0.848L151.396,46.839z M162.045,41.438
		v-1.424h-5.866v9.352h5.829V47.94h-4.34v-2.888h4.34v-1.425h-4.34v-2.189H162.045z"/>
	<g>
		<path fill="#FFFFFF" d="M168.824,38.193c0,1.549-1.265,2.814-2.814,2.814c-1.533,0-2.814-1.251-2.814-2.814
			c0-1.593,1.311-2.813,2.814-2.813C167.527,35.38,168.824,36.601,168.824,38.193z M163.649,38.187c0,1.31,1.058,2.367,2.353,2.367
			c1.311,0,2.368-1.079,2.368-2.367c0-1.311-1.071-2.354-2.368-2.354C164.722,35.833,163.649,36.861,163.649,38.187z
			 M164.953,36.615h1.086c0.372,0,1.104,0,1.104,0.834c0,0.58-0.373,0.699-0.597,0.774c0.431,0.03,0.462,0.313,0.521,0.715
			c0.03,0.253,0.076,0.685,0.164,0.834h-0.67c-0.015-0.149-0.12-0.954-0.12-0.998c-0.043-0.18-0.103-0.268-0.326-0.268h-0.552v1.266
			h-0.609V36.615z M165.548,38h0.491c0.401,0,0.477-0.283,0.477-0.447c0-0.432-0.297-0.432-0.461-0.432h-0.507V38z"/>
	</g>
</g>
</svg>
